Coordinates
version=1
nRows=5
nColumns=42
inDegrees=yes

Units are S.I. units (second, meters, Newtons, ...)
If the header above contains a line with 'inDegrees', this indicates whether rotational values are in degrees (yes) or radians (no).

endheader
time	pelvis_tilt	pelvis_list	pelvis_rotation	pelvis_tx	pelvis_ty	pelvis_tz	hip_flexion_r	hip_adduction_r	hip_rotation_r	knee_angle_r	knee_adduction_r	knee_angle_r_beta	ankle_angle_r	subtalar_angle_r	mtp_angle_r	hip_flexion_l	hip_adduction_l	hip_rotation_l	knee_angle_l	knee_adduction_l	knee_angle_l_beta	ankle_angle_l	subtalar_angle_l	mtp_angle_l	lumbar_extension	lumbar_bending	lumbar_rotation	arm_flex_r	arm_add_r	arm_rot_r	elbow_flex_r	pro_sup_r	wrist_flex_r	wrist_dev_r	arm_flex_l	arm_add_l	arm_rot_l	elbow_flex_l	pro_sup_l	wrist_flex_l	wrist_dev_l
      1.75000000	      1.56688615	      3.82327772	     13.19797786	     -0.64506778	      0.86513340	     -0.17894921	     22.81737887	    -12.43020714	    -28.93218628	     33.77248693	     -7.06328589	      0.58944109	     12.13472300	     32.64507557	     -7.71563075	      5.60845217	      5.58308372	     -2.44677152	     38.14700181	     -7.71013034	      0.66579078	     24.38437592	     21.08506093	     -7.71563075	    -24.60964222	      4.48380605	     -6.23119150	     -1.65600869	     -9.16066909	    -20.89153177	     47.84874060	     90.00000001	      0.00000000	      0.00000000	     17.81289121	    -11.96853857	     34.94770625	     50.89002113	     90.00000001	      0.00000000	      0.00000000
      1.76000000	      1.76187445	      3.93674542	     13.17103204	     -0.64088687	      0.86650005	     -0.17701416	     22.10552563	    -12.31547511	    -29.39298096	     33.41153172	     -7.13099052	      0.58314124	     12.64143880	     33.42446573	     -7.71274104	      5.07305196	      5.36195026	     -2.50228856	     38.01211769	     -7.58177382	      0.66343661	     23.39124503	     20.97011966	     -7.71274104	    -24.79948679	      4.40692323	     -6.27612899	     -1.49176115	     -9.22822618	    -20.39839733	     48.24283266	     90.00000001	      0.00000000	      0.00000000	     17.64175993	    -12.13230084	     35.31583284	     50.91831913	     90.00000001	      0.00000000	      0.00000000
      1.77000000	      1.61003825	      4.05126452	     13.03222769	     -0.63695472	      0.86719384	     -0.17510922	     21.94284046	    -12.32504995	    -29.53977214	     33.36064160	     -7.05891060	      0.58225304	     12.67286087	     33.46451993	     -7.71209818	      4.99774935	      5.31450630	     -2.50587425	     38.06639319	     -7.50655855	      0.66438390	     23.28686972	     20.92722604	     -7.71209818	    -24.60690220	      4.22802513	     -6.21394597	     -1.26246947	     -9.24794099	    -20.32374217	     48.38601816	     90.00000001	      0.00000000	      0.00000000	     17.36972930	    -12.11272167	     35.40740699	     50.88377086	     90.00000001	      0.00000000	      0.00000000
      1.78000000	      1.66699653	      4.18648431	     13.03486628	     -0.63293488	      0.86829011	     -0.17321098	     21.41508058	    -12.30766977	    -30.09649721	     33.06250225	     -7.16345883	      0.57704952	     13.02773169	     34.31622012	     -7.70971906	      4.73788499	      5.15909484	     -2.48075580	     38.18298565	     -7.33914501	      0.66641882	     22.36927084	     20.67061019	     -7.70971906	    -24.64779718	      4.09661463	     -6.30346692	     -1.07615394	     -9.27015407	    -19.96132387	     48.69182293	     90.00000001	      0.00000000	      0.00000000	     17.20347724	    -12.27074248	     35.78017046	     50.92095644	     90.00000001	      0.00000000	      0.00000000
      1.79000000	      1.76533987	      4.35510017	     13.03863249	     -0.62880094	      0.86944539	     -0.17152068	     20.86587925	    -12.40075207	    -31.01209574	     32.86162331	     -7.35436967	      0.57354352	     13.31049790	     35.71772275	     -7.70383806	      4.36298480	      5.11943108	     -2.18600576	     38.21717581	     -7.12863942	      0.66701555	     21.63189974	     19.97444651	     -7.70383806	    -24.70732612	      3.97810284	     -6.37190108	     -0.96850650	     -9.39278335	    -19.42243827	     49.00465512	     90.00000001	      0.00000000	      0.00000000	     17.04294962	    -12.43925509	     36.45444712	     51.03002655	     90.00000001	      0.00000000	      0.00000000
